<?xml version="1.0" standalone="no"?>
<!DOCTYPE svg PUBLIC "-//W3C//DTD SVG 1.1//EN" "http://www.w3.org/Graphics/SVG/1.1/DTD/svg11.dtd" >
<svg xmlns="http://www.w3.org/2000/svg" xmlns:xlink="http://www.w3.org/1999/xlink" version="1.1">
<metadata></metadata>
<defs>
<font id="domoaregatonormal" horiz-adv-x="512" >
<font-face units-per-em="2048" ascent="1638" descent="-410" />
<missing-glyph horiz-adv-x="500" />
<glyph horiz-adv-x="0" />
<glyph unicode="&#xd;" />
<glyph unicode=" " />
<glyph unicode="!" horiz-adv-x="501" d="M16 1239q182 -338 183 -580q0 -150 -70 -256l113 -41q143 365 143 615q0 176 -57 446zM35 2l311 -12q-88 115 -88 164q0 41 35 73l-154 -16q-68 -29 -88 -82q-18 -41 -16 -127z" />
<glyph unicode="&#x22;" horiz-adv-x="729" d="M47 1114q0 -96 29 -194l227 49q-88 147 -88 297q0 78 27 133l-101 -19q-94 -92 -94 -266zM379 1120q0 -96 29 -194l227 49q-88 147 -88 295q0 80 28 135l-100 -19q-96 -92 -96 -266z" />
<glyph unicode="#" horiz-adv-x="876" d="M35 1335l4 -182q162 -25 274 -25q176 0 430 78l11 72q-117 -35 -250 -35q-225 0 -469 92zM41 963q369 -20 686 -33l-8 209q-279 -117 -473 -117q-111 0 -191 39zM162 1012q0 -80 12 -172l215 69q-102 154 -102 289q0 111 69 201l-123 -6q-72 -217 -71 -381zM432 1128 q0 -117 55 -280l109 -27q-23 104 -23 178q0 211 146 406l-184 -8q-102 -102 -103 -269z" />
<glyph unicode="$" horiz-adv-x="837" d="M-8 397q182 -14 227 -14q147 0 201 14q111 27 110 121q0 98 -251 199l79 41q164 -72 224 -109q143 -90 143 -174q0 -106 -119 -174q-67 -39 -217 -80q-4 -20 -4 -43q0 -49 23 -112q23 -55 43 -109l-195 49q-2 23 -2 43q0 82 29 152q-45 -8 -130 -40t-118 -38zM14 836 q0 147 330 299l80 36q2 -4 4 -6v3v6q100 43 289 112l49 -227q-268 -78 -342 -107q-264 -96 -264 -176q0 -68 172 -129l-105 -26q-213 100 -213 215zM295 1307l2 67l197 49q-23 -49 -45 -96q-25 -61 -23 -102l2 -51l-6 4v-2q0 -2 2 -5q-43 -20 -80 -36q-51 92 -49 172z" />
<glyph unicode="%" horiz-adv-x="1232" d="M4 1044q0 190 215 283q14 -4 29 -12q-74 -88 -74 -223q0 -139 74 -293q-41 2 -137 0q-106 115 -107 245zM45 211q182 371 436 674q195 231 541 540l74 -69q-227 -162 -449 -582q-197 -389 -391 -780zM264 1280q2 2 7 5t122 40q102 -115 103 -217q0 -94 -115 -313h-88 q61 154 61 241q0 55 -28.5 118t-61.5 126zM655 528q0 190 213 281q16 -4 31 -10q-74 -88 -74 -226t74 -292q-41 2 -137 0q-106 115 -107 247zM915 762q0 2 9 8q4 0 120 37q102 -115 103 -217q0 -93 -115 -314q-49 2 -88 0q61 156 62 242q0 55 -27 117q-33 63 -64 127z" />
<glyph unicode="&#x26;" horiz-adv-x="1163" d="M-47 438q0 313 465 531l28 -109q-305 -133 -305 -301q0 -190 348 -342l-120 -227q-190 57 -303 179t-113 269zM96 1049q0 137 99 237q119 117 342 137q27 -104 63 -215q-199 -31 -252 -67q-78 -54 -115 -228l-67 -57q-70 74 -70 193zM487 106q176 102 220 146 q49 53 59 156q6 164 14 325q12 10 283 -63q4 -37 4 -70q0 -213 -168 -367q-135 -123 -348 -186q-29 0 -64 59z" />
<glyph unicode="'" horiz-adv-x="401" d="M47 1114q0 -96 29 -194l227 49q-88 147 -88 297q0 78 27 133l-101 -19q-94 -92 -94 -266z" />
<glyph unicode="(" horiz-adv-x="665" d="M76 721q0 -225 67 -418q70 -207 197 -313l229 57q-332 508 -331 883q0 326 266 493l-129 -12q-145 -70 -225 -268q-74 -182 -74 -422z" />
<glyph unicode=")" horiz-adv-x="638" d="M12 47q330 508 330 883q0 326 -266 493l129 -12q145 -70 225 -268q76 -182 76 -422q0 -225 -68 -418q-72 -207 -196 -313z" />
<glyph unicode="*" horiz-adv-x="899" d="M0 985q74 -12 215 -27l-170 181l170 100q12 -14 48 -95t54 -104q10 78 33 185l129 59q-20 -53 -37 -205q53 57 152 146l123 -176q-49 -35 -160 -111q121 2 199 47l26 -117q-33 -16 -129 -18q-115 -4 -145 -10q8 -14 92 -119q60 -78 72 -113l-103 -63q-12 45 -56 127 t-81 119q31 -106 72 -265l-254 6q0 23 19.5 114t19.5 112q-55 -70 -125 -230l-49 134q6 16 57 70t59 69q-29 -2 -113.5 -27.5t-105.5 -28.5z" />
<glyph unicode="+" horiz-adv-x="931" d="M229 688l13 86q82 -14 176 -12q25 117 71 207l132 37q-35 -121 -43 -230q102 18 184 51l33 -221q-57 -4 -213 19q12 -92 53 -156l-223 -92q-25 131 -11 276q-94 18 -172 35z" />
<glyph unicode="," horiz-adv-x="593" d="M119 -10q59 172 101 407.5t44 409.5l135 -119q45 -221 45 -385q1 -140 -36 -285z" />
<glyph unicode="-" horiz-adv-x="770" d="M16 629l7 112q125 -6 202 -6q227 0 342 62l47 -242q-55 -12 -125 -12q-201 0 -473 86z" />
<glyph unicode="." horiz-adv-x="573" d="M131 195q0 49 19 106l190 -47q-2 -90 16 -143q15 -43 70 -121l-223 41q-72 55 -72 164z" />
<glyph unicode="/" horiz-adv-x="1232" d="M84 225q432 291 993 1176l86 -15q-403 -942 -735 -1327z" />
<glyph unicode="0" horiz-adv-x="1253" d="M2 776q0 -340 315 -731l299 90q-133 78 -262 295q-141 242 -141 453q0 299 299 409l-100 92q-410 -225 -410 -608zM514 1343q133 -78 262 -296q141 -240 142 -453q0 -299 -300 -410l99 -90q412 225 411 606q0 343 -317 732z" />
<glyph unicode="1" horiz-adv-x="831" d="M12 1243q43 -4 84 -4q207 0 455 166l-23 -98q-88 -164 -159.5 -241t-204.5 -155zM389 342q0 682 227 1081q96 -2 84 -45q-88 -213 -88 -530q1 -281 103 -856h-309q-16 178 -17 350z" />
<glyph unicode="2" horiz-adv-x="1234" d="M0 809l18 293q119 139 291 222t338 83q170 0 285 -90q127 -98 164 -293l-41 -96q-188 332 -410 334q-264 2 -645 -453zM8 -8l25 201q379 180 823 180q139 0 264 -21l-59 -360q-236 143 -473 143q-219 0 -580 -143zM27 362q258 51 532 222q305 186 383 385l113 -72 q-111 -199 -408 -393t-598 -264z" />
<glyph unicode="3" horiz-adv-x="1087" d="M0 -10l188 264q166 8 344 96q190 94 191 195q0 143 -426 217l96 22q270 10 430 -96q143 -98 144 -250q0 -180 -193 -313q-215 -147 -571 -148q-99 1 -203 13zM0 1284l180 139q276 10 494 -96q211 -106 211 -240q0 -104 -140 -182q-160 -88 -475 -127l-4 117 q135 10 238 53q113 47 112 105q0 133 -616 231z" />
<glyph unicode="4" horiz-adv-x="1120" d="M-39 967q0 170 41 458l367 -2q-170 -373 -170 -538q0 -203 227 -203q86 0 207 27l-10 -119q-213 -43 -332 -43q-176 0 -253 94t-77 326zM666 500q0 559 163 923l80 -18q-70 -115 -69 -348q0 -254 80 -621q40 -159 81 -319l-301 -127q-35 260 -34 510z" />
<glyph unicode="5" horiz-adv-x="1210" d="M0 1343l143 80q90 -170 125 -329q27 -123 33 -303l-242 -93q35 131 35 234q0 170 -94 411zM27 10l184 350q377 -10 575 27q178 33 179 94q0 66 -185 131q-193 68 -495 105l57 92q403 0 619 -98q188 -86 188 -224q0 -178 -270 -327q-289 -158 -680 -158q-86 0 -172 8z M190 1409q94 -70 283 -70q121 0 299 31q129 25 258 47v-229q-135 -29 -272 -29q-319 0 -531 150z" />
<glyph unicode="6" horiz-adv-x="1198" d="M-16 596q0 311 206 563q219 264 519 264l71 -53q-287 -49 -434 -217q-131 -150 -131 -356q0 -170 86 -322.5t225 -224.5l-94 -260q-227 76 -342 246q-106 154 -106 360zM266 973q410 -4 625 -129q188 -109 188 -285q0 -152 -137.5 -302.5t-366.5 -244.5l-71 62 q330 197 330 370q0 123 -160 195t-404 63z" />
<glyph unicode="7" horiz-adv-x="1136" d="M0 229q147 291 408 564q281 289 587 446l90 -18q-219 -117 -434 -455q-202 -318 -354 -760zM0 1425q344 -86 569 -86q240 0 490 86l-4 -141q-166 -74 -332 -147q-319 -127 -520 -127q-96 0 -162 28z" />
<glyph unicode="8" horiz-adv-x="1284" d="M-14 526q0 193 307 275l239 -27q-330 -184 -329 -358q0 -88 95 -144.5t257 -58.5l37 -141q-199 -14 -402.5 137t-203.5 317zM119 1079q0 92 74.5 187.5t191.5 156.5l96 -196q-242 -86 -241 -168q0 -78 266 -178l61 -82q-449 43 -448 280zM455 981q410 88 409 199 q0 55 -96 93t-215 38q-29 0 -53 -2l37 114q248 -25 378 -114q117 -80 117 -191t-118.5 -203.5t-311.5 -115.5zM604 236q440 176 440 301q0 123 -419 219l118 45q438 -125 439 -303q0 -193 -498 -508z" />
<glyph unicode="9" horiz-adv-x="1075" d="M12 1073q0 248 283 324l10 -113q-115 -80 -115 -172q0 -113 156 -192.5t377 -77.5l-47 -262q-70 -25 -141 -25q-205 0 -367 168q-156 162 -156 350zM322 1130v293q332 33 497 -106q147 -125 148 -363q0 -248 -152 -526t-371 -436l-63 96q190 172 295 369q98 184 98 344 q0 154 -92 245t-268 91q-43 0 -92 -7z" />
<glyph unicode=":" horiz-adv-x="380" d="M8 965q0 45 17 94l135 10q-13 -104 116 -221l-210 -10q-57 43 -58 127zM10 561q0 61 23 115l125 4q-14 -108 86 -268l-211 39q-23 49 -23 110z" />
<glyph unicode=";" horiz-adv-x="444" d="M8 965q0 45 17 94l135 10q-13 -104 116 -221l-210 -10q-57 43 -58 127zM23 571q0 82 10 105l125 4q-8 -63 57 -254q61 -172 102 -238l-241 -59q-18 39 -35.5 184.5t-17.5 257.5z" />
<glyph unicode="&#x3c;" horiz-adv-x="1198" d="M29 913q154 -2 356 103q147 74 332 213q117 90 233 182l146 -291q-328 -160 -457 -209q-326 -127 -561 -131zM35 750q135 -94 516 -220q285 -86 571 -174l-116 -325q-754 414 -893 559z" />
<glyph unicode="=" horiz-adv-x="937" d="M39 449v241q141 -59 369 -59q131 0 380 26l39 -141q-256 -61 -276 -65q-182 -39 -307 -39t-205 37zM70 913q246 119 510 119q80 0 211 -8l-9 -256q-129 33 -252.5 62.5t-212.5 29.5q-109 0 -241 -39z" />
<glyph unicode="&#x3e;" horiz-adv-x="1165" d="M-2 356l119 -325q752 414 893 559l77 160q-137 -94 -516 -220q-287 -86 -573 -174zM25 1120q330 -160 458 -209q326 -127 559 -131l52 133q-154 -2 -357 103q-150 74 -334 213q-117 90 -233 182z" />
<glyph unicode="?" horiz-adv-x="964" d="M0 1423l45 -278q250 29 379 29q166 0 166 -54q0 -39 -101 -143q-141 -150 -186 -213q-100 -139 -100 -260q0 -106 76 -205h83q-27 55 -26 115q0 137 143 307q2 2 264 268q143 143 144 223q0 190 -887 211zM145 39l318 -49q-115 113 -115 184q0 31 23 53l-138 9 q-86 -27 -88 -197z" />
<glyph unicode="@" />
<glyph unicode="A" horiz-adv-x="1406" d="M0 276q23 303 182 627q152 303 369 520l117 -51q-150 -100 -240 -518q-72 -422 -145 -842zM408 569q4 16 20 95h3q47 0 137 52q94 54 118 97l29 -272q-53 -10 -115 -11q-109 0 -192 39zM688 1135q0 106 10 208l52 80q-1 -15 -1 -30q0 -214 107 -461q86 -193 244 -416 q103 -135 205 -270l-242 -256q-176 199 -279 512q-96 303 -96 633z" />
<glyph unicode="B" horiz-adv-x="1333" d="M2 29q66 283 117 610q61 406 61 653q0 74 -6 131q38 -28 83 -28h3h3q40 0 77 28q18 -127 39 -254q35 -246 35 -452q0 -276 -60 -500q-133 -70 -352 -188zM150 88q743 262 743 444q0 117 -346 181l153 59h29q229 0 363 -90q129 -86 129 -227q0 -150 -148 -279 q-160 -139 -432 -184zM403 1163l97 260q246 -18 385 -112q127 -86 127 -205q0 -125 -142 -229q-156 -113 -424 -152l-14 131q397 66 397 180q0 59 -114 94q-105 34 -262 34q-25 0 -50 -1z" />
<glyph unicode="C" horiz-adv-x="1093" d="M-2 678q0 217 203 409q217 205 624 336l119 -151q-672 -160 -672 -506q0 -225 269 -422q247 -180 487 -180h25l-385 -158q-324 117 -497 295t-173 377z" />
<glyph unicode="D" horiz-adv-x="1310" d="M0 225q123 283 174 490q68 262 68 549q0 78 -6 159l178 -149q22 -206 22 -464v-22q0 -467 -59 -794l-375 223zM446 1292l195 49q549 -256 549 -573q0 -424 -733 -778l61 264q115 76 238 225q145 178 145 295q0 104 -184 283q-135 119 -271 235z" />
<glyph unicode="E" horiz-adv-x="1114" d="M-47 553q0 483 149 815l140 55q-51 -221 -52 -434q1 -373 187 -883l-377 -112q-47 289 -47 559zM264 1335l27 88q184 -39 391 -39t373 39l-115 -338q-18 -4 -41 -4q-172 0 -635 254zM317 655l15 215q143 -34 298 -34h9h10q119 0 215 22l-147 -299q-25 -10 -66 -10 q-84 0 -192.5 33.5t-141.5 72.5zM377 -6l51 217q66 -20 141 -21q203 1 486 142l-152 -338q-102 -39 -241 -39q-141 0 -285 39z" />
<glyph unicode="F" horiz-adv-x="1159" d="M0 -6q174 588 174 1048q0 193 -31 363l115 18q39 -272 76 -542q49 -387 49 -621q0 -86 -6 -154zM313 1423q176 -57 365 -57t377 57l139 -317q-29 -8 -78 -8q-164 0 -436 67.5t-365 126.5zM385 795q59 -25 127 -25q76 0 178 31q88 28 174 57l-16 -278q-233 10 -412 92z " />
<glyph unicode="G" horiz-adv-x="1230" d="M-2 760q0 571 993 663l82 -55q-365 -61 -600 -246q-227 -176 -227 -372q0 -312 602 -535l-412 -158q-186 137 -301 305q-137 199 -137 398zM735 -332q63 178 119 459q59 309 59 520q0 100 -16 166l96 43q106 -215 107 -721q0 -272 -35 -450z" />
<glyph unicode="H" horiz-adv-x="1425" d="M20 0q195 494 211 541q92 276 93 510q0 160 -41 331l108 41q104 -389 105 -708q0 -416 -172 -791zM532 698l7 103q131 -51 186 -51q117 0 326 84l-35 -265q-29 -6 -64 -6q-147 0 -420 135zM768 -6q365 584 365 1012q0 231 -107 417l158 2q108 -273 108 -650v-7v-7 q0 -381 -108 -730z" />
<glyph unicode="I" horiz-adv-x="614" d="M2 68q184 467 184 763q0 256 -110 519l149 73q125 -311 176 -549q59 -266 60 -571q0 -135 -10 -311q-8 4 -220.5 40t-228.5 36z" />
<glyph unicode="J" horiz-adv-x="1333" d="M0 291l78 303q72 -80 160 -211q78 -115 114 -150q59 -57 140 -57q75 0 198 51l-57 -188h-23h23q-197 -39 -279 -39q-117 0 -195.5 63.5t-154.5 231.5h23h-23zM682 -6q154 383 154 823q0 344 -123 604l184 -16q100 -182 199 -365q113 -229 112 -389q1 -244 -153 -508z" />
<glyph unicode="K" horiz-adv-x="1232" d="M27 213q303 395 303 813q0 172 -49 352l133 47q90 -299 90 -686q0 -395 -90 -747zM526 645l11 105q311 -186 411 -279q174 -158 174 -344q0 -47 -12 -100l-264 -37q24 55 24 120v5q0 141 -110 299q-98 137 -234 231zM526 776v101q109 37 183 135q90 119 98 295h264 q-96 -240 -246 -367q-106 -92 -299 -164z" />
<glyph unicode="L" horiz-adv-x="1212" d="M0 -8q121 334 166 510q57 238 57 469q0 186 -35 422l154 30q133 -408 133 -694q0 -180 -72 -653zM442 70l33 131h19q463 0 706 192l-143 -401q-43 -27 -131 -27q-111 0 -277 41q-129 31 -207 64z" />
<glyph unicode="M" horiz-adv-x="2027" d="M-18 250q344 365 456 641q90 224 90 487v33l103 -47q0 -438 -8 -545q-23 -262 -129 -522q-49 -125 -125 -285q-6 8 -189.5 121t-197.5 117zM668 1333l108 23q-1 -11 -1 -23q0 -101 59 -317q65 -239 113 -239q3 0 7 1l-120 -266q-3 -2 -5 -2q-42 0 -106 385 q-56 352 -56 426q0 7 1 12zM903 608l82 -14q123 190 150 244q79 160 79 305q0 49 -6 92l-127 151q-14 -459 -178 -778zM1227 1290l82 117v-6q0 -109 69 -271q59 -135 121 -268q111 -277 457 -639q-14 -6 -197.5 -118.5t-189.5 -120.5q-76 160 -127 286q-125 307 -166 498 q-49 221 -49 522z" />
<glyph unicode="N" horiz-adv-x="1533" d="M-16 109q195 252 278 585q70 272 80 686l129 39q37 -274 37 -495q0 -484 -195 -924zM520 1333l43 74q88 -287 176 -573q131 -393 242 -553l-129 -236q-150 221 -240 612q-76 326 -92 676zM934 59q199 518 199 830q0 256 -132 495l396 -28q14 -111 14 -211 q0 -250 -90 -522q-75 -228 -270 -623z" />
<glyph unicode="O" horiz-adv-x="1208" d="M2 735q0 -340 315 -731l299 90q-133 78 -262 295q-141 242 -141 453q0 299 299 409l-100 92q-410 -225 -410 -608zM469 1362q139 -80 279 -322q155 -264 155 -490q0 -300 -285 -407l48 -127q408 223 407 678q1 420 -321 815z" />
<glyph unicode="P" horiz-adv-x="1083" d="M0 -8q119 451 119 813q0 223 -41 553l121 65q49 -211 96 -622q45 -385 45 -620q0 -51 -2 -95zM276 1423q725 -174 725 -465q0 -139 -170 -280q-155 -129 -403 -227l-90 241q334 182 334 338q0 176 -393 270z" />
<glyph unicode="Q" horiz-adv-x="1394" d="M2 776q0 -340 315 -731l222 254q-125 74 -232 240q-119 184 -119 356q0 279 324 397l-100 92q-410 -225 -410 -608zM518 1257q209 -39 402.5 -283.5t193.5 -484.5q0 -268 -276 -370l172 -21q262 180 262 545q0 266 -148 483q-160 234 -422 297zM569 -369l209 185 q14 115 15 219q0 176 -45 352q-25 102 -107 340l-70 -29q55 -299 56 -516q0 -231 -58 -551z" />
<glyph unicode="R" horiz-adv-x="1300" d="M-2 164q248 694 248 1219v40l82 -123q49 -311 49 -528q0 -299 -111 -762zM330 1423q319 -94 481 -227q141 -119 141 -252q0 -145 -162 -256t-395 -129q25 117 25 158q0 45 -14 106q278 57 278 216q0 79 -83 153t-236 121zM592 520q0 29 4 58l90 28q-8 -29 -8 -57 q0 -156 225 -285q166 -78 330 -158l-254 -204q-150 119 -252 264q-135 188 -135 354z" />
<glyph unicode="S" horiz-adv-x="991" d="M29 231q608 145 608 291q0 90 -225 183l112 57q385 -174 385 -383q0 -152 -194 -279q-185 -120 -445 -161zM82 887q0 156 154.5 310.5t400.5 246.5l250 -144q-301 -88 -463 -221q-143 -119 -143 -245q0 -157 204 -230l-147 -39q-256 121 -256 322z" />
<glyph unicode="T" horiz-adv-x="1126" d="M0 1425q86 -14 213 -14q199 0 522 35q236 29 471 55l-106 -344q-63 -8 -146 -8q-203 0 -485 55q-244 51 -453 121zM385 51q111 291 137 381q57 193 58 363q0 162 -50 354h136q118 -357 118 -604q0 -229 -90 -553z" />
<glyph unicode="U" horiz-adv-x="1142" d="M20 823q0 141 21 563l362 37q-70 -221 -137 -440q-82 -287 -82 -471q0 -327 248 -442l-57 -80q-203 8 -287 258q-68 197 -68 575zM465 113q172 84 242.5 202.5t70.5 309.5q0 178 -100 735l274 49q72 -297 72 -530q0 -629 -553 -869z" />
<glyph unicode="V" horiz-adv-x="1398" d="M16 1282l316 141q166 -311 233 -553q76 -281 76 -643q0 -82 -4 -170l-72 -67q-68 461 -178 721q-109 254 -371 571zM637 -10q0 348 137 764q125 383 313 669l230 -145q-106 -182 -215 -365q-162 -283 -246 -479q-105 -243 -105 -389q0 -15 1 -29z" />
<glyph unicode="W" horiz-adv-x="1910" d="M0 1274l270 151q84 -264 142 -571q63 -352 63 -633q0 -75 -6 -145l-113 -62q8 66 9 133q0 254 -119 570q-43 119 -246 557zM479 190q2 14 131 353q88 233 90 383l224 -64q-4 -100 -135 -342.5t-289 -435.5zM862 621q6 -127 35 -213q47 -135 199 -383l139 196 q-102 119 -205 236q-63 80 -135 252zM1249 164q0 -41 4 -80l74 -84q-4 41 -4 84q0 180 94 397q59 137 209 387q156 262 211 385l-268 150q-100 -297 -201 -594q-119 -389 -119 -645z" />
<glyph unicode="X" horiz-adv-x="1150" d="M-23 240q129 213 261 381q-199 268 -238 520l270 284q29 -264 164 -581q270 276 768 579l31 -98q-299 -158 -457 -346q-123 -147 -215 -393q203 -358 428 -514l-137 -56q-109 90 -375 332q-72 -211 -135 -358z" />
<glyph unicode="Y" horiz-adv-x="1198" d="M0 1264l219 159q184 -321 221 -614l-39 -55q-72 174 -161 280q-39 45 -240 230zM174 66q111 369 293 718q199 385 426 631l268 -139q-147 -160 -295 -318q-236 -262 -381 -473q-196 -288 -239 -503z" />
<glyph unicode="Z" horiz-adv-x="1202" d="M0 -8l23 135q223 57 544 88q241 23 460 23q61 0 120 -2l-72 -244q-352 55 -577 55q-246 0 -498 -55zM0 276q182 305 442 547q207 193 598 461l60 -20q-268 -190 -445 -400q-215 -256 -428 -682zM14 1423q266 -39 564 -39q295 0 499 39l29 -88q-274 -127 -537 -186 q-215 -49 -549 -78z" />
<glyph unicode="[" horiz-adv-x="638" d="M0 -8q49 260 97 519t48 443q0 201 -47 437q84 20 103 20q2 0 2 -2t-10 -6q115 -504 114 -821q1 -258 -65 -590h-242zM223 1333l25 78q76 -20 137 -20q72 0 121 28v-159q-137 12 -283 73zM274 84q115 92 287 104l-74 -182q-41 27 -77 27q-20 0 -56 -10q-51 -14 -65 -17z " />
<glyph unicode="\" horiz-adv-x="1159" d="M16 1319q76 -250 306 -637q223 -373 438 -623l342 166q-317 215 -596 525q-328 362 -397 651z" />
<glyph unicode="]" horiz-adv-x="679" d="M-2 188l74 -182q41 27 78 27q20 0 55 -10q51 -14 65 -17l15 78q-115 92 -287 104zM53 1260q137 12 283 73l-25 78q-76 -20 -137 -20q-72 0 -121 28v-159zM252 582q-1 -258 65 -590h242q-49 260 -97 519t-48 443q0 201 47 437q-84 20 -103 20q-2 0 -2 -2t9 -6 q-113 -504 -113 -821z" />
<glyph unicode="^" horiz-adv-x="1136" d="M2 655l35 62q14 -2 164 -17q0 70 24 140q-100 14 -192 37l6 75q125 -10 229 -14q152 266 623 496l33 -131q-328 -186 -424 -359q281 18 458 115l58 -207q-172 -41 -400 -41q-78 0 -157 4q-4 -68 24 -137q74 -4 138 -4q256 0 378 55l39 -217q-59 -10 -143 -10 q-127 0 -307 28q90 -98 350 -284l-104 -256q-223 90 -394 243q-193 178 -231 373z" />
<glyph unicode="_" horiz-adv-x="1044" d="M0 96q340 104 594 105q68 0 151 -4l134 -185q-279 45 -517 45q-143 0 -342 -30z" />
<glyph unicode="`" horiz-adv-x="354" d="M84 1266q74 -182 195 -260l100 131q-92 -2 -258 163z" />
<glyph unicode="a" horiz-adv-x="1120" d="M-4 438q0 127 127 217t317 90q100 0 205 -28v-101q-55 23 -137 23q-137 0 -258 -51q-127 -53 -127 -123q0 -145 541 -246q-10 57 -11 139q0 287 80 469l262 -57q-196 -434 -196 -579q0 -85 49 -132l-129 -39q-29 78 -47 160l-76 -190q-305 78 -463 207q-137 113 -137 241 z" />
<glyph unicode="b" horiz-adv-x="997" d="M23 1247l81 72q188 -588 189 -1034q0 -127 -12 -291h-250q69 258 69 513v7q0 279 -77 733zM289 629l2 78q313 -33 471 -125q137 -82 137 -197q0 -131 -167 -245.5t-396 -139.5l-19 209q154 20 262.5 83.5t108.5 135.5q0 141 -399 201z" />
<glyph unicode="c" horiz-adv-x="817" d="M10 399q0 -150 166 -281.5t393 -154.5l181 244q-188 25 -349 96q-178 80 -178 164q0 133 453 227l-55 68q-313 -35 -471 -139q-139 -92 -140 -224z" />
<glyph unicode="d" horiz-adv-x="931" d="M27 446q0 135 131 232q147 111 440 147q4 143 80 383l22 70l68 29q-37 -219 -37 -416q0 -240 60 -488q55 -195 110 -389l-256 -47q-23 291 -47 776q-354 -61 -354 -233q0 -94 109.5 -178t260.5 -103l-32 -247q-225 23 -390 163t-165 301z" />
<glyph unicode="e" horiz-adv-x="894" d="M6 403q0 -147 165 -275t392 -151l187 230q-188 25 -349 96q-178 80 -178 164q0 133 453 227l-55 68q-315 -35 -474 -139q-141 -90 -141 -220zM346 379q59 10 117 22q51 14 73.5 58.5t24.5 152.5l178 93q14 -66 15 -121q0 -253 -304 -253q-14 0 -28 1z" />
<glyph unicode="f" horiz-adv-x="397" d="M-88 735q41 -15 90 -15q15 0 31 1q74 418 366 418h19l8 -86q-285 -4 -291 -310q39 12 113 37l-12 -194q-43 2 -89 8q37 -248 74 -498q57 -367 78 -440l-262 78q-23 242 -23 684q0 141 6 205q-41 12 -73 28z" />
<glyph unicode="g" horiz-adv-x="854" d="M-2 563q0 250 238 250q129 0 382 -86l-18 -109q-111 72 -248 72q-180 0 -180 -133q0 -211 397 -367q72 184 72 377q0 59 -8 115l63 51q20 -145 21 -287q0 -328 -111 -555q-141 -289 -450 -385l-74 283h6q158 0 285 109q117 100 188 272l-256 -98q-307 227 -307 491z" />
<glyph unicode="h" horiz-adv-x="935" d="M12 33q119 299 148 395q65 208 65 380v5q0 119 -26 238l75 28q59 -227 60 -467q0 -360 -135 -657zM371 575l8 101q14 2 27 2q143 0 278 -189q141 -195 141 -442v-27l-290 -26q86 137 86 272q0 129 -74 216t-176 93z" />
<glyph unicode="i" horiz-adv-x="475" d="M8 20q123 311 123 603q0 117 -20 120l151 33q66 -315 66 -592q0 -94 -6 -217q-6 4 -155 28.5t-159 24.5zM70 1085q0 -80 63 -151l74 8q-25 66 -25 150q0 59 13 108l-121 -78q-4 -18 -4 -37z" />
<glyph unicode="j" horiz-adv-x="712" d="M-92 -299q-1 0 -1 3q0 15 17 97q23 111 23 131q0 6 -2 9q264 72 338 143q108 103 108 372q0 50 -2 101q-6 117 -20 123l151 33q61 -248 62 -525q0 -139 -93 -249q-165 -203 -581 -238zM328 1020q0 -80 63 -152l74 11q-25 63 -25 149q0 57 13 107l-121 -78q-4 -16 -4 -37z " />
<glyph unicode="k" horiz-adv-x="899" d="M12 47q104 137 162 340q55 188 55 387q0 152 -32 275l94 32q61 -211 61 -518q0 -313 -61 -559zM369 535l6 73q411 -245 411 -507q0 -35 -8 -72l-186 -27q18 41 18 92q0 115 -78 252q-74 127 -163 189zM369 627v69q115 39 135 183l133 -154q-100 -68 -150 -84 q-26 -8 -118 -14z" />
<glyph unicode="l" horiz-adv-x="385" d="M-2 532q0 -166 47 -473l283 -59q-150 414 -150 733q0 150 27 324l-109 22q-98 -297 -98 -547z" />
<glyph unicode="m" horiz-adv-x="1429" d="M0 -8q35 166 35 508q0 193 -12 334l86 -25q53 -147 88.5 -356t35.5 -375zM160 766q53 20 106 43q76 29 135 29q281 0 299 -631l-239 -195q2 74 16 236q10 147 10 215q0 256 -155 256q-59 0 -148 -35zM590 799q59 10 117 22q76 14 131 15q180 0 284 -152 q141 -203 174 -682l-233 4q10 98 10 187q0 262 -85 407t-230 145q-61 0 -129 -26z" />
<glyph unicode="n" horiz-adv-x="1024" d="M0 166q27 109 53 217q20 98 21 190q0 102 -25 261l90 8q43 -158 88 -318q39 -164 39 -288q0 -123 -37 -246zM186 739v72q139 59 242 59q444 0 463 -880l-326 123q35 166 35 290q0 356 -270 357q-63 0 -144 -21z" />
<glyph unicode="o" horiz-adv-x="901" d="M-12 424q0 125 91 237.5t259 186.5l33 -53q-213 -141 -213 -326q0 -168 217 -291l-37 -186q-350 172 -350 432zM377 752l55 172q358 -326 359 -535q0 -209 -326 -336l-72 29q215 115 215 264q0 154 -231 406z" />
<glyph unicode="p" horiz-adv-x="976" d="M0 864h252q25 -293 53 -782q352 61 352 256q0 106 -109.5 198.5t-258.5 112.5l18 207q227 -23 395 -167t168 -308q0 -137 -129 -234q-147 -109 -436 -145q-8 -254 -104 -555l-68 -29q37 219 37 439q0 274 -59 569q-23 111 -111 438z" />
<glyph unicode="q" horiz-adv-x="1060" d="M12 381q0 -137 129 -234q147 -109 437 -145q8 -254 104 -555l68 -29q-31 182 -31 357q0 264 78 549q68 213 133 426l-299 114q-25 -293 -53 -782q-360 63 -361 233q0 90 104.5 168t253.5 97v276q-227 -23 -395 -167t-168 -308z" />
<glyph unicode="r" horiz-adv-x="796" d="M2 -8q78 309 78 698q0 92 -6 172l143 -35q104 -401 105 -589q-1 -85 -17 -175zM248 795q156 6 215 14q152 23 244 82l-64 -254q-43 -12 -92 -12q-143 0 -285 92z" />
<glyph unicode="s" horiz-adv-x="894" d="M14 -4l148 276q134 -24 231 -24h8q223 0 224 104q0 49 -55.5 97.5t-127.5 60.5l-43 86q160 -43 248 -125q82 -76 82 -166q0 -143 -182 -233q-162 -81 -404 -81q-62 0 -129 5zM20 633q0 104 205 182q217 82 541 82l-29 -248q-143 31 -270 31q-147 0 -222 -37 q-48 -24 -48 -49q0 -14 16 -29q47 -45 207 -61l-33 -88q-367 76 -367 217z" />
<glyph unicode="t" horiz-adv-x="600" d="M-10 825q77 -12 142 -12h18q4 45 4 76q0 145 -66 297l86 59q55 -96 84 -233q6 -31 27 -187q59 10 202 31l-59 -172q-70 -10 -118 -10h-15q-4 -172 -6 -344q-15 -281 -66 -375l-207 108q31 82 70 330q25 158 49 316q-39 14 -135 47z" />
<glyph unicode="u" horiz-adv-x="817" d="M4 473q0 78 12 320l254 24q-104 -358 -104 -500q0 -198 135 -251l-39 -54q-150 6 -209 135q-49 104 -49 326zM326 98q82 55 110 150q23 72 23 205v86q-2 57 -2 90q0 80 6 143l190 35q10 -74 11 -145q0 -227 -99 -402q-90 -155 -235 -235z" />
<glyph unicode="v" horiz-adv-x="1028" d="M-10 786l221 101q121 -229 162 -379q42 -157 67 -479l-49 -47q-43 244 -86 348q-88 213 -315 456zM440 -18q0 451 299 905l179 -146q-129 -113 -259 -329q-140 -235 -140 -388q0 -12 1 -24z" />
<glyph unicode="w" horiz-adv-x="1259" d="M0 788l188 107q8 -27 107 -281q63 -170 84 -288q59 211 61 354l158 -43q-4 -82 -59 -236q-66 -184 -154 -303q0 -22 -2 -45l-78 -43q4 35 4 70q0 119 -53 244q-33 76 -121 223q-94 154 -135 241zM537 305q0 33 9 86q7 43 7 67v9l25 61q25 -74 51 -149q14 -39 76 -115 q20 129 120 322q117 227 144 307l188 -105q-47 -102 -162 -251q-135 -172 -172 -234q-78 -131 -78 -254q0 -25 3 -49l-52 59q-2 20 -2 39l-57 -82q-100 162 -100 289z" />
<glyph unicode="x" horiz-adv-x="806" d="M-6 176q25 41 86 180q53 119 86 162q-68 68 -83 87.5t-79 115.5l189 199q23 -68 45 -138q16 -45 65 -108q80 76 160 151q88 80 172 121l20 -67q-133 -106 -295 -328q213 -377 322 -502l-25 -69q-266 262 -372 440q-31 -90 -37 -418z" />
<glyph unicode="y" horiz-adv-x="923" d="M-2 793l209 172q31 -55 43 -347q12 -332 18 -362q31 98 164 352q141 266 203 334l188 -96q-115 -131 -358 -578q-272 -500 -318 -727l-49 60q25 84 56 241q37 185 49 236q-12 29 -78 364q-55 283 -127 351z" />
<glyph unicode="z" horiz-adv-x="718" d="M6 877q281 -43 410 -43q59 0 133 6l22 -64q-147 -53 -295 -106q-78 -25 -266 -41zM14 2l17 94q283 75 543 75q31 0 61 -1l-51 -170q-252 39 -303 39q-92 0 -267 -37zM14 201q129 215 240 336q92 98 229 190l43 -29q-121 -121 -159 -186q-27 -41 -193 -377z" />
<glyph unicode="{" />
<glyph unicode="|" horiz-adv-x="483" d="M-16 -43l157 1403l215 63q-22 -436 -63 -1517q-102 23 -309 51z" />
<glyph unicode="}" />
<glyph unicode="~" />
<glyph unicode="&#xa0;" />
<glyph unicode="&#xad;" horiz-adv-x="770" d="M16 629l7 112q125 -6 202 -6q227 0 342 62l47 -242q-55 -12 -125 -12q-201 0 -473 86z" />
<glyph unicode="&#x2000;" horiz-adv-x="754" />
<glyph unicode="&#x2001;" horiz-adv-x="1509" />
<glyph unicode="&#x2002;" horiz-adv-x="754" />
<glyph unicode="&#x2003;" horiz-adv-x="1509" />
<glyph unicode="&#x2004;" horiz-adv-x="503" />
<glyph unicode="&#x2005;" horiz-adv-x="377" />
<glyph unicode="&#x2006;" horiz-adv-x="251" />
<glyph unicode="&#x2007;" horiz-adv-x="251" />
<glyph unicode="&#x2008;" horiz-adv-x="188" />
<glyph unicode="&#x2009;" horiz-adv-x="301" />
<glyph unicode="&#x200a;" horiz-adv-x="83" />
<glyph unicode="&#x2010;" horiz-adv-x="770" d="M16 629l7 112q125 -6 202 -6q227 0 342 62l47 -242q-55 -12 -125 -12q-201 0 -473 86z" />
<glyph unicode="&#x2011;" horiz-adv-x="770" d="M16 629l7 112q125 -6 202 -6q227 0 342 62l47 -242q-55 -12 -125 -12q-201 0 -473 86z" />
<glyph unicode="&#x2012;" horiz-adv-x="770" d="M16 629l7 112q125 -6 202 -6q227 0 342 62l47 -242q-55 -12 -125 -12q-201 0 -473 86z" />
<glyph unicode="&#x2013;" horiz-adv-x="1196" d="M16 629l12 112q214 -6 346 -6q389 0 586 62l80 -242q-94 -12 -214 -12q-344 0 -810 86z" />
<glyph unicode="&#x2014;" horiz-adv-x="2220" d="M16 629l24 112q428 -6 692 -6q777 0 1171 62l161 -242q-188 -12 -428 -12q-688 0 -1620 86z" />
<glyph unicode="&#x202f;" horiz-adv-x="301" />
<glyph unicode="&#x205f;" horiz-adv-x="377" />
<glyph unicode="&#x25fc;" horiz-adv-x="942" d="M0 0v942h942v-942h-942z" />
</font>
</defs>
</svg>
